<svg width="1147" height="305" viewBox="0 0 1147 305" fill="none" xmlns="http://www.w3.org/2000/svg">
<rect x="512" y="212" width="265" height="30" fill="#ECF03A"/>
<g filter="url(#filter0_d_302_13)">
<path d="M131 242V100H75V67H227.5V100H171.5V242H131ZM249.291 242V67H325.041C340.708 67 354.208 69.5833 365.541 74.75C376.874 79.75 385.624 87 391.791 96.5C397.958 106 401.041 117.333 401.041 130.5C401.041 143.5 397.958 154.75 391.791 164.25C385.624 173.583 376.874 180.75 365.541 185.75C354.208 190.75 340.708 193.25 325.041 193.25H271.791L289.791 175.5V242H249.291ZM360.541 242L316.791 178.5H360.041L404.291 242H360.541ZM289.791 180L271.791 161H322.791C335.291 161 344.624 158.333 350.791 153C356.958 147.5 360.041 140 360.041 130.5C360.041 120.833 356.958 113.333 350.791 108C344.624 102.667 335.291 100 322.791 100H271.791L289.791 80.75V180ZM433.129 242V67H518.629C540.629 67 557.129 71.1667 568.129 79.5C579.296 87.8333 584.879 98.8333 584.879 112.5C584.879 121.667 582.629 129.667 578.129 136.5C573.629 143.167 567.462 148.333 559.629 152C551.796 155.667 542.796 157.5 532.629 157.5L537.379 147.25C548.379 147.25 558.129 149.083 566.629 152.75C575.129 156.25 581.712 161.5 586.379 168.5C591.212 175.5 593.629 184.083 593.629 194.25C593.629 209.25 587.712 221 575.879 229.5C564.046 237.833 546.629 242 523.629 242H433.129ZM473.379 211.5H520.629C531.129 211.5 539.046 209.833 544.379 206.5C549.879 203 552.629 197.5 552.629 190C552.629 182.667 549.879 177.25 544.379 173.75C539.046 170.083 531.129 168.25 520.629 168.25H470.379V138.75H513.629C523.462 138.75 530.962 137.083 536.129 133.75C541.462 130.25 544.129 125 544.129 118C544.129 111.167 541.462 106.083 536.129 102.75C530.962 99.25 523.462 97.5 513.629 97.5H473.379V211.5ZM778.842 245C765.342 245 752.758 242.833 741.092 238.5C729.592 234 719.592 227.667 711.092 219.5C702.592 211.333 695.925 201.75 691.092 190.75C686.425 179.75 684.092 167.667 684.092 154.5C684.092 141.333 686.425 129.25 691.092 118.25C695.925 107.25 702.592 97.6667 711.092 89.5C719.758 81.3333 729.842 75.0833 741.342 70.75C752.842 66.25 765.425 64 779.092 64C794.258 64 807.925 66.6667 820.092 72C832.425 77.1667 842.758 84.8333 851.092 95L825.092 119C819.092 112.167 812.425 107.083 805.092 103.75C797.758 100.25 789.758 98.5 781.092 98.5C772.925 98.5 765.425 99.8333 758.592 102.5C751.758 105.167 745.842 109 740.842 114C735.842 119 731.925 124.917 729.092 131.75C726.425 138.583 725.092 146.167 725.092 154.5C725.092 162.833 726.425 170.417 729.092 177.25C731.925 184.083 735.842 190 740.842 195C745.842 200 751.758 203.833 758.592 206.5C765.425 209.167 772.925 210.5 781.092 210.5C789.758 210.5 797.758 208.833 805.092 205.5C812.425 202 819.092 196.75 825.092 189.75L851.092 213.75C842.758 223.917 832.425 231.667 820.092 237C807.925 242.333 794.175 245 778.842 245ZM878.441 242V67H918.941V209H1006.69V242H878.441ZM1029.32 242V67H1069.82V242H1029.32Z" fill="white"/>
</g>
<path d="M90 25V46.5991C84.0698 46.5991 78.75 47.1663 74.0407 48.3008C69.4186 49.4353 65.843 51.3989 63.314 54.1915C60.8721 56.9841 59.9128 60.8676 60.4361 65.8419L65.2762 113.884C66.1483 122.087 65.4506 128.85 63.1831 134.174C61.0029 139.41 57.4709 143.468 52.5872 146.348C47.7035 149.228 41.7297 151.279 34.6657 152.5C41.9913 153.722 48.0959 155.729 52.9797 158.522C57.8634 161.227 61.3517 165.198 63.4448 170.434C65.5378 175.67 66.1483 182.565 65.2762 191.117L60.4361 239.158C59.9128 244.132 60.8721 248.017 63.314 250.81C65.843 253.689 69.4186 255.652 74.0407 256.699C78.75 257.834 84.0698 258.402 90 258.402V280C80.9302 280 72.689 279.259 65.2762 277.776C57.9506 276.379 51.7151 274.023 46.5698 270.707C41.5116 267.391 37.8052 262.895 35.4506 257.223C33.1831 251.638 32.4855 244.701 33.3576 236.41L38.1977 191.248C38.8081 185.052 37.9797 179.99 35.7122 176.063C33.532 172.049 29.564 169.081 23.8081 167.162C18.0523 165.242 10.1163 164.282 0 164.282V140.719C10.0291 140.719 17.9215 139.803 23.6773 137.97C29.5203 136.05 33.532 133.127 35.7122 129.199C37.9797 125.185 38.8081 120.08 38.1977 113.884L33.3576 68.7218C32.4855 60.344 33.1831 53.3188 35.4506 47.6463C37.8052 41.9739 41.5116 37.5231 46.5698 34.2942C51.7151 30.9779 57.9506 28.6217 65.2762 27.2254C72.689 25.7418 80.9302 25 90 25Z" fill="#ECF03A"/>
<path d="M1057 25V46.5991C1062.93 46.5991 1068.25 47.1663 1072.96 48.3008C1077.58 49.4353 1081.16 51.3989 1083.69 54.1915C1086.13 56.9841 1087.09 60.8676 1086.56 65.8419L1081.72 113.884C1080.85 122.087 1081.55 128.85 1083.82 134.174C1086 139.41 1089.53 143.468 1094.41 146.348C1099.3 149.228 1105.27 151.279 1112.33 152.5C1105.01 153.722 1098.9 155.729 1094.02 158.522C1089.14 161.227 1085.65 165.198 1083.56 170.434C1081.46 175.67 1080.85 182.565 1081.72 191.117L1086.56 239.158C1087.09 244.132 1086.13 248.017 1083.69 250.81C1081.16 253.689 1077.58 255.652 1072.96 256.699C1068.25 257.834 1062.93 258.402 1057 258.402V280C1066.07 280 1074.31 279.259 1081.72 277.776C1089.05 276.379 1095.28 274.023 1100.43 270.707C1105.49 267.391 1109.19 262.895 1111.55 257.223C1113.82 251.638 1114.51 244.701 1113.64 236.41L1108.8 191.248C1108.19 185.052 1109.02 179.99 1111.29 176.063C1113.47 172.049 1117.44 169.081 1123.19 167.162C1128.95 165.242 1136.88 164.282 1147 164.282V140.719C1136.97 140.719 1129.08 139.803 1123.32 137.97C1117.48 136.05 1113.47 133.127 1111.29 129.199C1109.02 125.185 1108.19 120.08 1108.8 113.884L1113.64 68.7218C1114.51 60.344 1113.82 53.3188 1111.55 47.6463C1109.19 41.9739 1105.49 37.5231 1100.43 34.2942C1095.28 30.9779 1089.05 28.6217 1081.72 27.2254C1074.31 25.7418 1066.07 25 1057 25Z" fill="#ECF03A"/>
<defs>
<filter id="filter0_d_302_13" x="71" y="64" width="1002.82" height="189" filterUnits="userSpaceOnUse" color-interpolation-filters="sRGB">
<feFlood flood-opacity="0" result="BackgroundImageFix"/>
<feColorMatrix in="SourceAlpha" type="matrix" values="0 0 0 0 0 0 0 0 0 0 0 0 0 0 0 0 0 0 127 0" result="hardAlpha"/>
<feOffset dy="4"/>
<feGaussianBlur stdDeviation="2"/>
<feComposite in2="hardAlpha" operator="out"/>
<feColorMatrix type="matrix" values="0 0 0 0 0 0 0 0 0 0 0 0 0 0 0 0 0 0 0.25 0"/>
<feBlend mode="normal" in2="BackgroundImageFix" result="effect1_dropShadow_302_13"/>
<feBlend mode="normal" in="SourceGraphic" in2="effect1_dropShadow_302_13" result="shape"/>
</filter>
</defs>
</svg>
